<?xml version="1.0" standalone="no"?>
<!DOCTYPE svg PUBLIC "-//W3C//DTD SVG 1.1//EN" "http://www.w3.org/Graphics/SVG/1.1/DTD/svg11.dtd">
<svg xmlns="http://www.w3.org/2000/svg">
<metadata>This SVG font generated by Fontastic.me</metadata>
<defs>
<font id="destinicon" horiz-adv-x="512">
  <font-face font-family="destinicon" font-weight="500" font-stretch="normal" units-per-em="512" panose-1="2 0 6 9 0 0 0 0 0 0" ascent="480" descent="-32" x-height="357" cap-height="449" bbox="-0.5 -32.5 512.5 480.5" underline-thickness="50" underline-position="-100" unicode-range="U+0041-007A"/>
    <missing-glyph/>
    <glyph glyph-name="a" unicode="a" d="M482 223h6c6 0 11 -3 13 -9c5 -13 -3 -38 -8 -52c-1 -2 -3 -4 -5 -6c-1 -1 -25 -20 -72 -29v-4c0 -28 4 -58 4 -58c1 -8 -5 -15 -13 -15h-18c-4 0 -7 1 -10 4c-1 1 -11 13 -20 39c0 -15 2 -29 2 -29c1 -8 -6 -15 -14 -15h-18c-5 0 -10 3 -12 7c-1 1 -18 29 -29 59h-18 c-14 0 -27 0 -39 1c-1 -22 4 -49 4 -49c1 -9 -6 -16 -14 -16h-16c-3 0 -6 0 -8 2c-1 1 -27 20 -38 54c-6 -14 -11 -30 -10 -43c1 -8 -6 -15 -14 -15h-20c-5 0 -10 3 -12 7s-50 96 -36 221c-5 6 -14 16 -21 29c-25 6 -35 26 -35 38c0 21 15 23 19 23c3 0 5 0 7 -1 c2 6 5 9 8 12c11 12 26 13 32 13c15 0 37 -9 40 -34c44 33 102 40 139 40v0c104 -2 150 -44 165 -76c12 3 26 7 39 7c12 0 29 -6 27 -19c-1 -5 -4 -9 -8 -11s-5 -4 -7 -11s-6 -18 -17 -27c8 -12 10 -26 10 -29c0 0 0 -8 17 -8zM364 122c10 -38 25 -59 25 -59h18s-4 34 -5 62 c-12 -2 -24 -3 -38 -3zM205 64h16s-5 29 -4 53c-22 2 -38 6 -48 9c5 -39 36 -62 36 -62zM30 353c-3 0 -5 -3 -5 -9s5 -23 30 -25c10 -21 26 -37 27 -38c-16 -125 33 -218 33 -218h20c-3 35 28 79 28 79s37 -14 107 -14c9 0 18 1 27 1c10 -32 32 -66 32 -66h18s-5 46 1 73h13 c80 0 119 31 119 31s12 32 8 42h-6c-31 0 -31 22 -31 22s-2 25 -18 31c35 15 18 37 40 48c-4 3 -8 4 -13 4c-14 0 -33 -8 -48 -9c-7 28 -49 77 -156 79c-48 0 -129 -11 -165 -77c-12 9 -15 14 -15 14s28 0 28 31c0 26 -26 26 -27 26c-5 0 -31 -1 -30 -31c0 -3 1 -8 2 -11 c-1 0 -11 3 -13 8s-3 9 -6 9zM68 337c-2 0 -3 1 -3 10c0 8 8 13 13 13s8 -4 8 -9c0 -4 -4 -14 -18 -14z"/>
    <glyph glyph-name="b" unicode="b" d="M484 323l-32 -32l-128 128l32 33c35 35 93 35 128 0s35 -94 0 -129zM77 45l43 170l173 174l128 -128l-173 -174zM140 191l-18 -72l30 -29l71 18zM43 394v-384h384v171l43 43v-214c0 -24 -19 -42 -43 -42h-384c-24 0 -43 18 -43 42v384c0 24 19 43 43 43h213l-42 -43h-171 z"/>
    <glyph glyph-name="c" unicode="c" d="M256 -32c-141 0 -256 115 -256 256s115 256 256 256s256 -115 256 -256s-115 -256 -256 -256zM256 437c-118 0 -213 -95 -213 -213s95 -214 213 -214s214 96 214 214s-96 213 -214 213zM431 298c-72 -72 -146 -145 -218 -217c-48 48 -96 97 -144 145l54 54l90 -91 l163 163z"/>
    <glyph glyph-name="d" unicode="d" d="M367 198c-8 0 -13 6 -13 13v69l-60 35c-11 6 -6 24 7 24h133c8 0 17 -9 11 -19l-67 -115c-2 -4 -7 -7 -11 -7zM315 248v-51c0 -5 -3 -9 -7 -11l-44 -26c-2 -1 -4 -2 -6 -2s-5 1 -7 2l-44 26c-4 2 -7 6 -7 11v51c0 5 3 9 7 11l44 26c4 2 9 2 13 0l44 -26c4 -2 7 -6 7 -11z M158 211c0 -7 -5 -13 -13 -13c-4 0 -9 3 -11 7l-66 115c-6 10 3 19 11 19h133c13 0 17 -18 6 -24l-60 -35v-69zM196 145l60 -34l60 34c11 6 24 -6 18 -17l-67 -115c-2 -4 -6 -7 -11 -7s-9 3 -11 7l-66 115c-6 11 6 23 17 17z"/>
    <glyph glyph-name="e" unicode="e" d="M256 -32c-141 0 -256 115 -256 256s115 256 256 256s256 -115 256 -256s-115 -256 -256 -256zM406 311h-100l-50 86l-50 -86h-99l50 -86l-50 -87h99l50 -86l50 86h100l-50 87z"/>
    <glyph glyph-name="f" unicode="f" d="M256 352c71 0 128 -57 128 -128s-57 -128 -128 -128s-128 57 -128 128s57 128 128 128zM256 -32c-141 0 -256 115 -256 256s115 256 256 256s256 -115 256 -256s-115 -256 -256 -256zM256 437c-118 0 -213 -95 -213 -213s95 -214 213 -214s214 96 214 214 s-96 213 -214 213z"/>
    <glyph glyph-name="g" unicode="g" d="M171 181c-128 0 -128 128 -128 128v128c0 -85 85 -85 85 -85h171v85l171 -171l-171 -170v85h-128zM384 96c24 0 43 -19 43 -43s-19 -43 -43 -43s-42 19 -42 43s18 43 42 43zM256 96c24 0 43 -19 43 -43s-19 -43 -43 -43s-42 19 -42 43s18 43 42 43zM128 96 c24 0 43 -19 43 -43s-19 -43 -43 -43s-42 19 -42 43s18 43 42 43z"/>
    <glyph glyph-name="h" unicode="h" d="M472 68h-432c-20 0 -36 17 -36 37v238c0 20 16 36 36 36h432c20 0 37 -16 37 -36v-238c0 -20 -17 -37 -37 -37zM484 343c0 7 -5 12 -12 12h-432c-7 0 -12 -5 -12 -12v-238c0 -7 5 -12 12 -12h432c7 0 12 5 12 12v238zM305 224h48v82h49v-82h48l-72 -85zM222 236l-48 -61 l-49 61v-95h-48v165h48l49 -60l48 60h49v-165h-49v95z"/>
    <glyph glyph-name="i" unicode="i" d="M256 -32c-141 0 -256 115 -256 256s115 256 256 256s256 -115 256 -256s-115 -256 -256 -256zM256 437c-118 0 -213 -95 -213 -213s95 -214 213 -214s214 96 214 214s-96 213 -214 213zM214 266h85v-213h-85v213zM256 309c-24 0 -42 19 -42 43s18 42 42 42s43 -18 43 -42 s-19 -43 -43 -43z"/>
    <glyph glyph-name="j" unicode="j" d="M379 167c0 -10 -5 -17 -12 -21l-98 -57c-8 -4 -17 -4 -25 0l-98 57c-8 4 -13 12 -13 21v113c0 10 6 18 13 22l98 56c8 4 17 4 25 0l98 -56c8 -4 12 -13 12 -22v-113zM277 164l-21 36l-20 -36h41zM359 164c-34 59 -69 119 -103 178c-34 -59 -68 -119 -102 -178h41l20 36 l-20 35h41l20 36l21 -36h41l-21 -35l21 -36h41z"/>
    <glyph glyph-name="k" unicode="k" d="M462 11l-92 460l42 8l91 -460zM214 181c-67 -67 -171 -43 -171 -43l-43 214s86 -43 171 42c67 67 171 43 171 43l42 -213s-85 42 -170 -43z"/>
    <glyph glyph-name="l" unicode="l" d="M441 281l-32 -33l-128 128l32 33c35 35 93 35 128 0s35 -93 0 -128zM379 218l-174 -173l-171 -43l43 171l174 173zM98 148l-18 -71l29 -30l72 18z"/>
    <glyph glyph-name="m" unicode="m" d="M256 -32c-141 0 -256 115 -256 256s115 256 256 256s256 -115 256 -256s-115 -256 -256 -256zM256 437c-118 0 -213 -95 -213 -213s95 -214 213 -214s214 96 214 214s-96 213 -214 213zM235 181l-32 213h107l-32 -213h-43zM256 138c24 0 43 -18 43 -42s-19 -43 -43 -43 s-42 19 -42 43s18 42 42 42z"/>
    <glyph glyph-name="n" unicode="n" d="M256 437l171 -171h-85v-170s0 -86 85 -86h-128s-128 0 -128 128v128h-85z"/>
    <glyph glyph-name="o" unicode="o" d="M469 109c0 -8 -7 -13 -13 -13c-2 0 -5 0 -7 1l-54 32c-12 8 -29 7 -40 -4s-12 -28 -4 -40l6 -10c1 -2 2 -4 2 -6c0 -6 -5 -13 -13 -13c-4 0 -9 2 -11 6l-6 11c-7 13 -22 20 -37 16s-24 -17 -23 -32v-12c0 -7 -6 -13 -13 -13s-13 6 -13 13v12c1 15 -8 28 -23 32 s-29 -3 -36 -16l-6 -11c-2 -4 -7 -6 -11 -6c-8 0 -13 7 -13 13c0 2 1 4 2 6l6 10c8 12 6 29 -5 40s-27 12 -39 4l-55 -32c-2 -1 -4 -1 -6 -1c-6 0 -13 5 -13 13c0 4 2 9 6 11l55 31c13 7 20 22 16 37s-17 24 -32 23h-12c-7 0 -13 6 -13 13s6 13 13 13h12c15 -1 28 8 32 23 s-3 29 -16 36l-10 6c-4 2 -7 7 -7 11c0 8 7 13 13 13c2 0 4 -1 6 -2l11 -6c12 -8 28 -6 39 5s13 27 5 39l-6 11c-1 2 -2 4 -2 6c0 6 5 13 13 13c4 0 9 -3 11 -7l6 -10c7 -13 21 -20 36 -16s24 17 23 32v63c0 7 6 13 13 13s13 -6 13 -13v-63c-1 -15 8 -28 23 -32s30 3 37 16 l6 10c2 4 7 7 11 7c8 0 13 -7 13 -13c0 -2 -1 -4 -2 -6l-6 -11c-8 -12 -7 -28 4 -39s28 -13 40 -5l10 6c2 1 4 2 6 2c6 0 13 -5 13 -13c0 -4 -2 -9 -6 -11l-11 -6c-13 -7 -20 -21 -16 -36s17 -24 32 -23h12c7 0 13 -6 13 -13s-6 -13 -13 -13h-12c-15 1 -28 -8 -32 -23 s3 -30 16 -37l55 -31c4 -2 7 -7 7 -11zM256 339c-64 0 -115 -51 -115 -115s51 -115 115 -115s115 51 115 115s-51 115 -115 115zM256 134c-7 0 -13 6 -13 13v45c0 16 -9 30 -20 36l-40 23c-14 8 -1 30 13 22l40 -23c6 -3 12 -5 20 -5c7 0 15 2 21 5l39 23 c14 8 28 -13 13 -22l-39 -23c-11 -6 -21 -20 -21 -36v-45c0 -7 -6 -13 -13 -13z"/>
    <glyph glyph-name="p" unicode="p" d="M256 103l34 58h67l-33 59l33 58h-67l-34 58l-33 -58h-68l101 175l202 -350h-202zM155 278l34 -58l-34 -59h68l33 -58h-202z"/>
    <glyph glyph-name="q" unicode="q" d="M256 352c71 0 128 -57 128 -128s-57 -128 -128 -128s-128 57 -128 128s57 128 128 128z"/>
    <glyph glyph-name="r" unicode="r" d="M256 -32c-141 0 -256 115 -256 256s115 256 256 256s256 -115 256 -256s-115 -256 -256 -256zM256 439c-36 0 -64 -30 -64 -65s29 -64 64 -64s65 29 65 64s-30 65 -65 65zM358 360l-25 -34c31 -23 51 -60 51 -102c0 -71 -57 -128 -128 -128s-128 57 -128 128 c0 42 20 79 51 102l-25 34c-41 -31 -68 -80 -68 -136c0 -94 76 -171 170 -171s171 77 171 171c0 56 -28 105 -69 136z"/>
    <glyph glyph-name="s" unicode="s" d="M472 68h-432c-20 0 -36 17 -36 37v238c0 20 16 36 36 36h432c20 0 37 -16 37 -36v-238c0 -20 -17 -37 -37 -37zM271 306h-49l-48 -60l-49 60h-48v-165h48v95l49 -61l48 61v-95h49v165zM402 224v82h-49v-82h-48l73 -85l72 85h-48z"/>
    <glyph glyph-name="t" unicode="t" d="M256 -32c-141 0 -256 115 -256 256s115 256 256 256s256 -115 256 -256s-115 -256 -256 -256zM256 467c-134 0 -243 -109 -243 -243s109 -243 243 -243s243 109 243 243s-109 243 -243 243zM256 19c-113 0 -205 92 -205 205s92 205 205 205s205 -92 205 -205 s-92 -205 -205 -205zM384 352l-128 -96l-128 96v-96l128 -94l128 94v96zM384 185h-66l-62 -45l-62 45h-66v-89h256v89z"/>
    <glyph glyph-name="u" unicode="u" d="M435 140c0 -13 -8 -24 -17 -29l-145 -84c-10 -6 -23 -6 -33 0l-146 84c-10 6 -16 17 -16 29v168c0 13 7 23 16 28l146 85c10 6 23 6 33 0l145 -85c10 -6 17 -16 17 -28v-168zM402 237l-61 106c-5 8 -13 14 -23 14h-123c-11 0 -19 -7 -23 -14l-62 -106c-5 -8 -5 -19 0 -27 l62 -106c5 -8 13 -13 23 -13h123c11 0 19 6 23 13l61 106c5 8 5 19 0 27zM297 200l21 35l41 -71h-41zM256 271l-20 -36h-41l61 107l62 -107h-41zM195 164h-41l41 71l20 -35zM277 164h-41l20 36z"/>
    <glyph glyph-name="v" unicode="v" d="M256 -32c-141 0 -256 115 -256 256s115 256 256 256s256 -115 256 -256s-115 -256 -256 -256zM257 54c94 0 170 76 170 170c0 32 -8 61 -23 86l-233 -233c25 -15 54 -23 86 -23zM87 224c0 -31 8 -61 23 -86l233 233c-25 15 -55 23 -86 23c-94 0 -170 -76 -170 -170z"/>
    <glyph glyph-name="w" unicode="w" d="M410 10l-51 89l51 89l102 -178h-102zM256 276l-51 -88h-102l153 266l154 -266h-103zM103 10h-103l103 178l51 -89zM307 10h-102l51 89z"/>
    <glyph glyph-name="x" unicode="x" d="M406 54c-15 -26 -48 -45 -78 -45l-195 1h-1l-123 214l123 214h248l124 -214zM369 420h-226l-113 -196l113 -196v0h185c24 0 50 16 62 36l93 160zM328 46h-174l-51 89h190c8 0 19 6 23 13l18 32l21 -36l12 53l61 27h-54l14 49l22 39l51 -88l-87 -151 c-8 -15 -29 -27 -46 -27zM338 224h-47h-86l-26 44l-76 -133l-52 89l103 177h102l-51 -88h184z"/>
    <glyph glyph-name="y" unicode="y" d="M423 210l-71 -124c-5 -9 -14 -13 -24 -13h-143c-10 0 -19 4 -24 13l-71 124c-2 4 -4 9 -4 14s2 10 4 14l71 123c5 9 14 14 24 14h143c10 0 19 -5 24 -14l71 -123c2 -4 4 -9 4 -14s-2 -10 -4 -14zM358 295l-90 52c-7 4 -16 4 -23 0l-90 -52c-6 -4 -11 -10 -11 -19v-104 c0 -8 4 -16 11 -20l90 -52c7 -4 16 -4 23 0l90 52c6 4 11 11 11 20v104c0 8 -4 15 -11 19zM297 200l21 35l41 -71h-41zM256 271l-20 -36h-41l61 107l62 -107h-41zM195 164h-41l41 71l20 -35zM277 164h-41l20 36z"/>
    <glyph glyph-name="z" unicode="z" d="M402 210l-61 -106c-4 -7 -12 -13 -23 -13h-123c-10 0 -18 5 -23 13l-62 106c-5 8 -5 19 0 27l62 106c4 7 12 14 23 14h123c10 0 18 -6 23 -14l61 -106c5 -8 5 -19 0 -27zM277 164l-21 36l-20 -36h41zM359 164c-34 59 -69 119 -103 178c-34 -59 -68 -119 -102 -178h41 l20 36l-20 35h41l20 36l21 -36h41l-21 -35l21 -36h41z"/>
    <glyph glyph-name="A" unicode="A" d="M481 298l-60 -60c-25 -25 -58 -35 -90 -30l120 120c25 25 25 66 0 91s-65 25 -90 0l-121 -121c-5 32 5 65 30 90l60 61c42 42 109 42 151 0s42 -109 0 -151zM178 146c-10 10 -10 25 0 35l121 121c10 10 25 10 35 0s10 -25 0 -35l-121 -121c-10 -10 -25 -10 -35 0zM61 29 c25 -25 66 -25 91 0l120 120c5 -32 -5 -65 -30 -90l-60 -60c-42 -42 -109 -42 -151 0s-42 109 0 151l61 60c25 25 58 35 90 30l-121 -121c-25 -25 -25 -65 0 -90z"/>
    <glyph glyph-name="B" unicode="B" d="M342 181h-128v-85l-171 170l171 171v-85h170s86 0 86 85v-128s0 -128 -128 -128zM128 96c24 0 43 -19 43 -43s-19 -43 -43 -43s-42 19 -42 43s18 43 42 43zM256 96c24 0 43 -19 43 -43s-19 -43 -43 -43s-42 19 -42 43s18 43 42 43zM384 96c24 0 43 -19 43 -43 s-19 -43 -43 -43s-42 19 -42 43s18 43 42 43z"/>
    <glyph glyph-name="C" unicode="C" d="M256 -32c-141 0 -256 115 -256 256s115 256 256 256s256 -115 256 -256s-115 -256 -256 -256zM256 437c-118 0 -213 -95 -213 -213s95 -214 213 -214s214 96 214 214s-96 213 -214 213z"/>
    <glyph glyph-name="D" unicode="D" d="M470 224l-171 -171v85h-128c-128 0 -128 128 -128 128v128c0 -85 85 -85 85 -85h171v85z"/>
    <glyph glyph-name="E" unicode="E" d="M371 205c-11 0 -12 9 -12 19c0 38 -22 73 -56 91c-12 6 -7 24 6 24h147l-74 -127c-2 -4 -7 -7 -11 -7zM256 173c-28 0 -51 23 -51 51s23 51 51 51s51 -23 51 -51s-23 -51 -51 -51zM154 224c0 -10 -2 -19 -13 -19c-4 0 -9 3 -11 7l-73 127h147c13 0 17 -18 5 -24 c-34 -18 -55 -53 -55 -91zM201 138c17 -11 35 -17 55 -17s39 6 56 17c11 7 24 -7 18 -18l-74 -127l-73 127c-6 11 7 25 18 18z"/>
    <glyph glyph-name="F" unicode="F" d="M256 437l214 -213h-128v-214h-171v214h-128z"/>
    <glyph glyph-name="G" unicode="G" d="M470 -32h-299l43 42h256v427h-256l-43 43h299c43 0 42 -43 42 -43v-427c0 -43 -42 -42 -42 -42zM427 181v-128c0 85 -85 85 -85 85h-171v-85l-171 171l171 170v-85h128c128 0 128 -128 128 -128z"/>
    <glyph glyph-name="H" unicode="H" d="M256 10l-213 214h128v213h171v-213h128z"/>
  </font>
</defs>
</svg>
